<?xml version="1.0" encoding="UTF-8"?>
<svg width="144.5mm" height="144.5mm" version="1.1" viewBox="0 0 511.99998 511.99998" xmlns="http://www.w3.org/2000/svg">
 <g transform="translate(-132.39 -111.21)">
  <rect x="132.39" y="111.21" width="512" height="512" fill="#212121"/>
  <path d="m388 377.36a205 205 0 0 0 -205 205 205 205 0 0 0 1.7598 24.762h406.57a205 205 0 0 0 1.6719 -24.762 205 205 0 0 0 -205 -205z" fill="#fff"/>
  <path d="m235.97 347.22 152.03 131.52 152.03-131.52c-20.027-29.456-284.03-29.456-304.05 0z" fill="#212121"/>
  <path d="m235.97 326.22 152.03 131.52 152.03-131.52c-20.027-29.456-284.03-29.456-304.05 0z" fill="#ffa521"/>
  <path d="m370.58 286.03-76.156-95.937-63.299 91.981z" fill="#fff"/>
  <path d="m405.72 288.42 76.156-95.937 63.299 91.981z" fill="#fff"/>
  <path d="m342.31 247.67-23.55 38.993 55.756 1.5812-32.207-40.574z" fill="#af1200"/>
  <path d="m434.66 249.32-31.729 39.97 47.858-1.3564-16.13-38.613z" fill="#af1200"/>
  <path d="m311.03 162.99-7.417 10.774 67.237 84.696-22.478-42.371z" fill="#959595"/>
  <path d="m466.49 165.31 7.417 10.774-67.237 84.696 10.589-24.887z" fill="#959595"/>
 </g>
</svg>
